<?xml version="1.0" ?><svg data-name="Layer 1" id="Layer_1" viewBox="0 0 512 512" xmlns="http://www.w3.org/2000/svg"><title/><path d="M142.15,134h12.6a20.2,20.2,0,0,0,20.18-20.18V91.61a20.2,20.2,0,0,0-20.18-20.18h-12.6A20.21,20.21,0,0,0,122,91.61v22.23A20.21,20.21,0,0,0,142.15,134Zm-8.67-42.41a8.68,8.68,0,0,1,8.67-8.67h12.6a8.68,8.68,0,0,1,8.67,8.67v22.23a8.68,8.68,0,0,1-8.67,8.67h-12.6a8.68,8.68,0,0,1-8.67-8.67Z"/><path d="M357.25,134h12.6A20.21,20.21,0,0,0,390,113.84V91.61a20.21,20.21,0,0,0-20.19-20.18h-12.6a20.2,20.2,0,0,0-20.18,20.18v22.23A20.2,20.2,0,0,0,357.25,134Zm-8.67-42.41a8.68,8.68,0,0,1,8.67-8.67h12.6a8.68,8.68,0,0,1,8.68,8.67v22.23a8.68,8.68,0,0,1-8.68,8.67h-12.6a8.68,8.68,0,0,1-8.67-8.67Z"/><path d="M154.75,214.58h-12.6A20.21,20.21,0,0,0,122,234.76V257a20.21,20.21,0,0,0,20.19,20.18h12.6A20.2,20.2,0,0,0,174.93,257V234.76A20.2,20.2,0,0,0,154.75,214.58ZM163.42,257a8.68,8.68,0,0,1-8.67,8.67h-12.6a8.68,8.68,0,0,1-8.67-8.67V234.76a8.68,8.68,0,0,1,8.67-8.67h12.6a8.68,8.68,0,0,1,8.67,8.67Z"/><path d="M369.85,214.58h-12.6a20.2,20.2,0,0,0-20.18,20.18V257a20.2,20.2,0,0,0,20.18,20.18h12.6A20.21,20.21,0,0,0,390,257V234.76A20.21,20.21,0,0,0,369.85,214.58ZM378.53,257a8.68,8.68,0,0,1-8.68,8.67h-12.6a8.68,8.68,0,0,1-8.67-8.67V234.76a8.68,8.68,0,0,1,8.67-8.67h12.6a8.68,8.68,0,0,1,8.68,8.67Z"/><path d="M448,41.27H64a28.93,28.93,0,0,0-28.9,28.9V368.41A28.93,28.93,0,0,0,64,397.31H203.76v61.91h-41.9a5.76,5.76,0,0,0,0,11.51H350.14a5.76,5.76,0,0,0,0-11.51h-41.9V397.31H448a28.93,28.93,0,0,0,28.9-28.9V70.17A28.93,28.93,0,0,0,448,41.27Zm17.39,286.3h-46V300.75a5.78,5.78,0,0,0-2.9-5l-29.5-16.87a5.77,5.77,0,0,0-7.71,1.9l-15.68,24.6-15.67-24.6a5.77,5.77,0,0,0-7.71-1.9l-29.5,16.87a5.78,5.78,0,0,0-2.9,5v26.82h-46V195.93H465.38Zm-146.1,0V304.09l21.84-12.49,17.57,27.58a5.77,5.77,0,0,0,9.72,0L386,291.6l21.84,12.49v23.48Zm-215.11,0V304.09L126,291.6l17.58,27.58a6,6,0,0,0,9.72,0l17.58-27.58,21.83,12.49v23.48Zm97.16-31.82-29.49-16.87a5.77,5.77,0,0,0-7.71,1.9l-15.68,24.6-15.68-24.6a5.77,5.77,0,0,0-7.71-1.9l-29.5,16.87a5.78,5.78,0,0,0-2.9,5v26.82h-46V195.93h203.6V327.57h-46V300.75A5.76,5.76,0,0,0,201.33,295.75Zm-8.61-111.33H104.17V160.94L126,148.45,143.59,176a6,6,0,0,0,9.72,0l17.58-27.58,21.83,12.49Zm215.11,0H319.28V160.94l21.84-12.49L358.69,176a5.77,5.77,0,0,0,9.72,0L386,148.45l21.84,12.49ZM465.38,70.17V184.42h-46V157.6a5.76,5.76,0,0,0-2.9-5l-29.5-16.87a5.77,5.77,0,0,0-7.71,1.9l-15.68,24.6-15.67-24.6a5.77,5.77,0,0,0-7.71-1.9l-29.5,16.87a5.76,5.76,0,0,0-2.9,5v26.82h-46V52.78H448A17.41,17.41,0,0,1,465.38,70.17Zm-418.76,0A17.41,17.41,0,0,1,64,52.78H250.22V184.42h-46V157.6a5.73,5.73,0,0,0-2.9-5l-29.49-16.87a5.77,5.77,0,0,0-7.71,1.9l-15.68,24.6-15.68-24.6a5.77,5.77,0,0,0-7.71-1.9L95.56,152.6a5.76,5.76,0,0,0-2.9,5v26.82h-46ZM296.73,459.22H215.27V397.31h81.46ZM448,385.8H64a17.41,17.41,0,0,1-17.39-17.39V339.08H465.38v29.33A17.41,17.41,0,0,1,448,385.8Z"/></svg>